<svg xmlns="http://www.w3.org/2000/svg" width="110" height="110" version="1.0" id="man"><circle cx="55" cy="55" r="55" fill="#25B7D3"></circle><path fill="#FBC8C8" d="m70 45.036-2 1-3-10-17 5s1.5-2.107 3-5c-7.25 0-9 10-9 10l-1-.5V53l4 10 5.105 3.995A3 3 0 0 0 52.345 68h5.31a3 3 0 0 0 2.24-1.005L65 63l3.193-7.982c2.846-.191 3.807-4.501 3.807-7.76 0-1.111-1-2.222-2-2.222z"></path><path fill="#FFF" d="M83 76a5.999 5.999 0 0 0-3.043-2.983L68 69H42l-11.957 4.017A5.999 5.999 0 0 0 27 76l-4 11h64l-4-11z"></path><path fill="#F79392" d="M24.078 84.036h61.844l-1.091-3H25.169zM27 76l-.377 1.036h56.754L83 76a5.993 5.993 0 0 0-1.484-1.964H28.484A5.993 5.993 0 0 0 27 76z"></path><path fill="#21B2D1" d="M55 79.072c3.857 0 13-1 13-7V69h-3v3.072s-2 4-10 4-10-4-10-4V69h-3v3.072c0 6 9.143 7 13 7z"></path><path fill="#F7B4B4" d="M57.655 68h-5.31a3 3 0 0 1-2.24-1.005L45 63v9.036s2 4 10 4 10-4 10-4V63l-5.105 3.995A3 3 0 0 1 57.655 68z"></path><path fill="#FBC8C8" d="M50.105 66.995 45 63v9.036s2 4 10 4V68h-2.655a2.996 2.996 0 0 1-2.24-1.005z"></path><path fill="#FBD7D7" d="M51 36.036c-7.25 0-9 10-9 10l-2-1c-1 0-2 1.111-2 2.222 0 3.259.961 7.568 3.807 7.76L45 63l5.105 3.995A2.996 2.996 0 0 0 52.345 68H55V38.977l-7 2.059s1.5-2.107 3-5z"></path><path fill="#3E3E3F" d="M52 47.036a2 2 0 0 0-2-2h-.006c.001.022.006.042.006.063a2 2 0 0 1-1.994 2A1.996 1.996 0 0 0 52 47.036zM61.994 47.036a2 2 0 0 0-2-2h-.006c.001.021.006.041.006.062a2 2 0 0 1-1.994 2 1.996 1.996 0 0 0 3.994-.062z"></path><path fill="#F79392" d="M50 58.036h10s0 3-5 3-5-3-5-3z"></path><path fill="#84462D" d="M55 26.429c-8.284 0-15 6.42-15 15v3.607l2 1s1.75-10 9-10c-1.5 2.893-3 5-3 5l17-5 3 10 2-1v-3.607c0-8.58-6.716-15-15-15z"></path><path fill="#9C6144" d="M40 41.429v3.607l2 1s1.75-10 9-10c-1.5 2.893-3 5-3 5l7-2.059V26.429c-8.284 0-15 6.42-15 15z"></path></svg>