<svg xmlns="http://www.w3.org/2000/svg" version="1.1" xmlns:xlink="http://www.w3.org/1999/xlink" xmlns:svgjs="http://svgjs.dev/svgjs" width="473px" height="387px"><svg version="1.1" id="SvgjsSvg1037" xmlns="http://www.w3.org/2000/svg" xmlns:xlink="http://www.w3.org/1999/xlink" x="0px" y="0px" width="473px" height="387px" viewBox="0 0 473 387" enable-background="new 0 0 473 387" xml:space="preserve">
<g>
	<path fill="#414042" d="M19.951,332.172l-3.064,10.577H4.18l17.566-54.419h13.566l17.605,54.419H40.209 M22.756,322.454h11.549
		l-5.682-19.474h-0.225L22.756,322.454z"></path>
	<path fill="#414042" d="M69.438,321.893v20.856h-12.67V288.33h20.93c6.305,0,11.301,1.457,14.988,4.373
		c3.688,2.915,5.531,6.902,5.531,11.96c0,2.815-0.742,5.232-2.223,7.251c-1.484,2.018-3.67,3.662-6.561,4.934
		c3.338,0.947,5.738,2.523,7.195,4.729s2.186,4.951,2.186,8.24v3.439c0,1.42,0.213,3.04,0.637,4.858
		c0.422,1.819,1.158,3.115,2.205,3.888v0.747H88.648c-0.996-0.772-1.65-2.143-1.961-4.111c-0.312-1.968-0.469-3.787-0.469-5.457
		v-3.289c0-2.591-0.686-4.571-2.055-5.942c-1.371-1.37-3.377-2.057-6.018-2.057H69.438z M69.438,312.176h8.334
		c2.543,0,4.486-0.58,5.832-1.738s2.018-2.822,2.018-4.99c0-2.217-0.691-4.004-2.074-5.363c-1.383-1.357-3.332-2.037-5.85-2.037
		h-8.26V312.176z"></path>
	<path fill="#414042" d="M141.311,319.464h-21.34v13.567h25.152v9.718h-37.824V288.33h37.9v9.717h-25.229v11.699h21.34V319.464z"></path>
	<path fill="#414042" d="M179.734,328.322c0-1.919-0.637-3.401-1.906-4.448c-1.271-1.046-3.551-2.155-6.84-3.326
		c-6.877-2.168-11.973-4.491-15.287-6.971s-4.971-6.061-4.971-10.745c0-4.561,1.975-8.248,5.924-11.063s8.963-4.224,15.043-4.224
		c6.031,0,10.971,1.551,14.82,4.653s5.713,7.096,5.588,11.979l-0.074,0.224h-12.26c0-2.168-0.736-3.931-2.205-5.288
		c-1.471-1.358-3.502-2.037-6.092-2.037c-2.543,0-4.535,0.561-5.98,1.682s-2.168,2.504-2.168,4.148c0,1.596,0.729,2.872,2.186,3.831
		c1.459,0.96,4.193,2.162,8.205,3.606c6.18,1.845,10.832,4.111,13.959,6.803s4.691,6.391,4.691,11.101
		c0,4.784-1.863,8.528-5.588,11.231c-3.725,2.704-8.666,4.055-14.82,4.055c-6.18,0-11.523-1.551-16.033-4.652
		c-4.51-3.103-6.703-7.568-6.578-13.399l0.074-0.224h12.297c0,3.139,0.848,5.381,2.541,6.727c1.695,1.346,4.262,2.019,7.699,2.019
		c2.617,0,4.566-0.522,5.85-1.569S179.734,330.017,179.734,328.322z"></path>
	<path fill="#414042" d="M261.213,335.236c-1.844,2.193-4.521,4.125-8.035,5.793c-3.514,1.67-7.924,2.504-13.23,2.504
		c-6.729,0-12.191-2.067-16.391-6.203c-4.199-4.137-6.297-9.506-6.297-16.109v-11.362c0-6.554,2.049-11.91,6.148-16.071
		c4.098-4.162,9.375-6.242,15.828-6.242c7.002,0,12.246,1.62,15.734,4.859c3.488,3.238,5.471,7.662,5.943,13.268l-0.074,0.225
		h-11.848c-0.424-2.865-1.354-5.021-2.785-6.467c-1.434-1.444-3.619-2.167-6.561-2.167c-2.939,0-5.307,1.165-7.1,3.495
		c-1.795,2.33-2.691,5.338-2.691,9.025v11.438c0,3.787,0.883,6.834,2.652,9.139s4.248,3.457,7.439,3.457
		c2.316,0,4.135-0.188,5.457-0.561c1.32-0.374,2.365-0.872,3.139-1.495v-8.597h-8.559v-8.372h21.229V335.236z"></path>
	<path fill="#414042" d="M281.584,321.893v20.856h-12.672V288.33h20.932c6.303,0,11.299,1.457,14.986,4.373
		c3.688,2.915,5.533,6.902,5.533,11.96c0,2.815-0.742,5.232-2.225,7.251c-1.482,2.018-3.67,3.662-6.559,4.934
		c3.338,0.947,5.736,2.523,7.193,4.729c1.459,2.205,2.188,4.951,2.188,8.24v3.439c0,1.42,0.211,3.04,0.635,4.858
		c0.424,1.819,1.158,3.115,2.205,3.888v0.747h-13.006c-0.998-0.772-1.652-2.143-1.963-4.111c-0.312-1.968-0.467-3.787-0.467-5.457
		v-3.289c0-2.591-0.686-4.571-2.057-5.942c-1.369-1.37-3.377-2.057-6.018-2.057H281.584z M281.584,312.176h8.334
		c2.541,0,4.484-0.58,5.83-1.738s2.02-2.822,2.02-4.99c0-2.217-0.691-4.004-2.074-5.363c-1.383-1.357-3.334-2.037-5.85-2.037h-8.26
		V312.176z"></path>
	<path fill="#414042" d="M364.445,320.436c0,6.703-2.125,12.229-6.373,16.576c-4.248,4.349-9.799,6.521-16.65,6.521
		c-6.902,0-12.496-2.173-16.781-6.521c-4.287-4.348-6.43-9.873-6.43-16.576v-9.793c0-6.677,2.137-12.196,6.41-16.557
		s9.85-6.541,16.727-6.541c6.826,0,12.383,2.181,16.67,6.541c4.285,4.36,6.428,9.88,6.428,16.557V320.436z M351.85,310.568
		c0-3.887-0.916-7.076-2.746-9.568c-1.832-2.491-4.418-3.737-7.756-3.737c-3.414,0-6.023,1.239-7.83,3.719s-2.711,5.675-2.711,9.587
		v9.867c0,3.938,0.916,7.152,2.748,9.643c1.83,2.492,4.453,3.738,7.867,3.738c3.314,0,5.881-1.246,7.699-3.738
		c1.818-2.49,2.729-5.705,2.729-9.643V310.568z"></path>
	<path fill="#414042" d="M416.436,288.33v35.656c0,6.205-2.062,11.014-6.186,14.428c-4.125,3.414-9.525,5.119-16.203,5.119
		c-6.752,0-12.197-1.705-16.332-5.119c-4.137-3.414-6.205-8.223-6.205-14.428V288.33h12.67v35.656c0,3.34,0.859,5.812,2.58,7.419
		c1.719,1.607,4.148,2.411,7.287,2.411c3.115,0,5.514-0.797,7.195-2.393c1.682-1.594,2.523-4.074,2.523-7.438V288.33H416.436z"></path>
	<path fill="#414042" d="M437.402,324.099v18.65h-12.67V288.33h22.088c6.453,0,11.574,1.65,15.363,4.952
		c3.787,3.302,5.68,7.618,5.68,12.95c0,5.357-1.893,9.675-5.68,12.951c-3.789,3.277-8.91,4.915-15.363,4.915H437.402z
		 M437.402,314.381h9.418c2.742,0,4.828-0.754,6.262-2.262c1.432-1.507,2.148-3.443,2.148-5.812c0-2.417-0.717-4.397-2.148-5.942
		c-1.434-1.545-3.52-2.318-6.262-2.318h-9.418V314.381z"></path>
</g>
<g>
	<path fill="#ED1C24" d="M20.199,376.182c0-1.174-0.44-2.137-1.321-2.881c-0.881-0.746-2.415-1.406-4.603-1.98
		c-2.365-0.594-4.156-1.365-5.374-2.314c-1.217-0.951-1.826-2.232-1.826-3.846c0-1.652,0.681-2.998,2.042-4.039
		c1.36-1.039,3.11-1.559,5.248-1.559c2.227,0,4.023,0.619,5.389,1.855c1.366,1.238,2.029,2.748,1.989,4.529l-0.044,0.088h-1.634
		c0-1.443-0.512-2.631-1.536-3.562c-1.024-0.93-2.412-1.395-4.164-1.395c-1.732,0-3.086,0.385-4.061,1.158
		c-0.976,0.771-1.463,1.73-1.463,2.879c0,1.09,0.45,1.998,1.352,2.725c0.9,0.727,2.454,1.369,4.661,1.922
		c2.326,0.594,4.096,1.396,5.308,2.406c1.213,1.01,1.819,2.34,1.819,3.992c0,1.723-0.706,3.094-2.116,4.113
		s-3.209,1.529-5.396,1.529c-2.157,0-4.041-0.543-5.648-1.625c-1.608-1.084-2.389-2.666-2.339-4.744l0.03-0.09h1.633
		c0,1.678,0.628,2.922,1.886,3.73c1.257,0.809,2.736,1.215,4.438,1.215c1.712,0,3.096-0.377,4.149-1.127
		C19.673,378.41,20.199,377.418,20.199,376.182z"></path>
	<path fill="#ED1C24" d="M84.497,371.023H74.09v8.953h11.921v1.514H72.323v-21.615h13.613v1.514H74.09v8.121h10.407V371.023z"></path>
	<path fill="#ED1C24" d="M150.948,374.736l0.029,0.088c-0.188,2.168-0.96,3.873-2.316,5.115c-1.355,1.242-3.172,1.863-5.448,1.863
		c-2.405,0-4.345-0.869-5.819-2.605s-2.212-3.986-2.212-6.748v-3.518c0-2.752,0.737-5.002,2.212-6.748s3.414-2.621,5.819-2.621
		c2.296,0,4.117,0.609,5.464,1.826c1.346,1.219,2.112,2.93,2.301,5.137l-0.029,0.09h-1.663c-0.237-1.791-0.854-3.162-1.849-4.113
		c-0.994-0.949-2.402-1.424-4.224-1.424c-1.891,0-3.407,0.73-4.55,2.195c-1.144,1.463-1.715,3.338-1.715,5.621v3.547
		c0,2.314,0.571,4.201,1.715,5.658c1.143,1.459,2.659,2.189,4.55,2.189c1.821,0,3.231-0.465,4.231-1.393
		c0.999-0.928,1.613-2.314,1.841-4.16H150.948z"></path>
	<path fill="#ED1C24" d="M216.879,359.875v14.652c0,2.355-0.721,4.158-2.16,5.404c-1.44,1.248-3.318,1.871-5.635,1.871
		c-2.286,0-4.137-0.627-5.552-1.879c-1.416-1.252-2.123-3.051-2.123-5.396v-14.652h1.781v14.643c0,1.84,0.544,3.262,1.633,4.266
		s2.51,1.506,4.261,1.506c1.782,0,3.231-0.5,4.351-1.5c1.118-0.998,1.678-2.422,1.678-4.271v-14.643H216.879z"></path>
	<path fill="#ED1C24" d="M270.101,371.723v9.768h-1.767v-21.6h7.319c2.315,0,4.092,0.506,5.329,1.521
		c1.237,1.014,1.856,2.496,1.856,4.445c0,1.148-0.332,2.176-0.995,3.08c-0.663,0.906-1.599,1.566-2.806,1.982
		c1.336,0.338,2.299,0.938,2.888,1.805c0.589,0.865,0.883,1.951,0.883,3.258v2.035c0,0.672,0.079,1.275,0.238,1.811
		c0.158,0.535,0.42,0.971,0.786,1.307v0.355h-1.811c-0.366-0.355-0.624-0.855-0.772-1.498c-0.148-0.645-0.223-1.312-0.223-2.006
		v-1.975c0-1.326-0.428-2.371-1.284-3.139s-2.051-1.15-3.585-1.15H270.101z M270.101,370.207h5.33c1.949,0,3.375-0.393,4.275-1.18
		s1.351-1.848,1.351-3.184c0-1.426-0.447-2.521-1.343-3.289c-0.896-0.768-2.25-1.15-4.061-1.15h-5.553V370.207z"></path>
	<path fill="#ED1C24" d="M336.773,381.49h-1.781v-21.615h1.781V381.49z"></path>
	<path fill="#ED1C24" d="M403.105,361.389h-7.438v20.102h-1.782v-20.102h-7.438v-1.514h16.657V361.389z"></path>
	<path fill="#ED1C24" d="M459.445,371.885l6.696-12.01h2.063l-7.884,13.717v7.898h-1.767v-8.002l-7.823-13.613h2.063
		L459.445,371.885z"></path>
</g>
<polygon fill="#BE1E2D" points="336.207,29.979 336.961,34.521 335.41,45.139 317.832,51.918 320.479,38.997 "></polygon>
<polygon fill="#BE1E2D" points="128.421,151.395 128.421,145.365 141.521,142.029 140.727,151.395 "></polygon>
<polygon fill="#BE1E2D" points="136.908,73.119 142.951,70.87 154.547,80.877 147.557,84.848 "></polygon>
<polygon fill="#BE1E2D" points="191.307,18.187 197.861,18.187 206.168,33.861 206.168,42.915 193.461,39.262 "></polygon>
<polygon fill="#BE1E2D" points="220.141,8.924 222.529,11.623 225.865,27.189 221.734,28.778 216.97,13.944 "></polygon>
<g transform="translate(-30 -80)">
	<g>
		<path fill="#BE1E2D" d="M342.787,165.938c21.535-18.227,44.169-35.336,44.169-35.336s-6.302-5.632-17.501-12.572
			c-1.777-1.102-16.5,14.401-18.52,13.251c-18.645-10.631-12.982-29.955,4.906-20.896c23.501,11.896-57.008-22.426-99.248-15.512
			c-0.729,0.119-1.443,0.25-2.148,0.394c-2.225,0.454,2.541,17.912,0.414,18.437c-1.562,0.386-10.04-16.176-11.552-15.752
			c-4.435,1.239-8.646,2.637-12.646,4.178c-1.225,0.472,4.203,17.218,3.019,17.716c-2.14,0.899-10.847-14.42-12.86-13.437
			c-21.812,10.652-36.275,26.051-45.55,43.403c-0.48,0.898,9.306,14.447,8.853,15.355c-1.197,2.405-12.552-7.801-13.564-5.336
			c-7.363,17.923-9.977,37.259-9.977,55.248c0,2.603,0.117,5.164,0.33,7.688c0.154,1.845,13.221-3.705,13.47-1.9
			c0.259,1.876-12.295,11.101-11.952,12.935c4.805,25.796,16.867,47.586,9.93,67.973c-3.295,9.679-9.612,24.938-38.834,36.162
			c0,0,79.877-5.961,73.192-70.124C181.157,115.481,317.757,139.438,342.787,165.938z"></path>
		<path fill="#D1D3D4" d="M372.322,295.643l-21.387-9.002l-9.002-39.396l-45.02-18.002l9.001,30.387l27.015,9.004l18.006,72.033
			c0,0-45.021-19.202-72.029-19.202c-27.014,0-63.03,1.19-63.03,1.19s18.521-24.924,15.752-43.652
			c-9.388-29.452-8.302-34.879-6.744-55.39c1.995-26.381,27.155-54.025,63.028-54.025c78.783,0,75.405,79.911,75.405,79.911
			L372.322,295.643z"></path>
		<linearGradient id="SvgjsLinearGradient1036" gradientUnits="userSpaceOnUse" x1="276.2778" y1="262.2334" x2="191.1836" y2="114.8459">
			<stop offset="0" style="stop-color:#ED1C24"></stop>
			<stop offset="0.4257" style="stop-color:#ED2025"></stop>
			<stop offset="0.6722" style="stop-color:#EE2928"></stop>
			<stop offset="0.8724" style="stop-color:#EE362F"></stop>
			<stop offset="1" style="stop-color:#EF4136"></stop>
		</linearGradient>
		<path fill="url(#SVGID_1_)" d="M386.957,124.566c0,0-23.076,17.447-45.021,36.012c-25.517-27.016-166.069-51.426-140.021,103.843
			c6.812,65.403-73.269,71.478-73.269,71.478c29.786-11.45,36.216-27.003,39.583-36.864c6.926-20.344-4.715-42.072-9.81-67.64
			l13.316-8.64l-13.876,4.396c-1.004-5.719-1.639-10.356-1.639-16.482c0-18.755,2.783-38.946,10.686-57.55l13.826,8.87
			l-12.72-11.412c9.657-21.284,26.228-40.28,53.292-52.391l10.891,20.599L227.33,95.67c6.951-2.706,14.538-4.98,22.811-6.746
			l2.389,19.061v-19.57c49.049-9.809,90.283,7.663,113.678,21.565l-15.008,18.26l18.514-16.113
			C380.756,119.027,386.957,124.566,386.957,124.566z"></path>
	</g>
</g>
<polygon fill="#808285" points="311.934,167.244 320.43,170.7 330.475,210.653 320.936,206.641 "></polygon>
<polygon fill="#808285" points="275.915,179.629 302.93,188.633 320.936,260.666 319.338,259.742 300.686,193.821 "></polygon>
<polygon fill="#BE1E2D" points="356.956,44.562 356.956,50.603 347.396,51.918 "></polygon>
<polygon fill="#BE1E2D" points="103.525,257.936 98.644,255.893 114.066,253.23 110.146,257.06 "></polygon>
<path fill="#BE1E2D" d="M202.102,21.459"></path>
<g>
</g>
<g>
</g>
<g>
</g>
<g>
</g>
<g>
</g>
<g>
</g>
</svg><style>@media (prefers-color-scheme: light) { :root { filter: none; } }
@media (prefers-color-scheme: dark) { :root { filter: none; } }
</style></svg>